<svg width="20" height="21" viewBox="0 0 20 21" fill="none" xmlns="http://www.w3.org/2000/svg">
    <path d="M4.16667 3.83337H7.5L9.16667 8.00004L7.08333 9.25004C7.9758 11.0596 9.44039 12.5242 11.25 13.4167L12.5 11.3334L16.6667 13V16.3334C16.6667 17.2538 15.9205 18 15 18C8.27304 17.5912 2.9088 12.227 2.5 5.50004C2.5 4.57957 3.24619 3.83337 4.16667 3.83337" stroke="#4B465C" stroke-width="1.75" stroke-linecap="round" stroke-linejoin="round"/>
    <path d="M4.16667 3.83337H7.5L9.16667 8.00004L7.08333 9.25004C7.9758 11.0596 9.44039 12.5242 11.25 13.4167L12.5 11.3334L16.6667 13V16.3334C16.6667 17.2538 15.9205 18 15 18C8.27304 17.5912 2.9088 12.227 2.5 5.50004C2.5 4.57957 3.24619 3.83337 4.16667 3.83337" stroke="white" stroke-opacity="0.2" stroke-width="1.75" stroke-linecap="round" stroke-linejoin="round"/>
    <path d="M12.5 6.33337C13.4205 6.33337 14.1667 7.07957 14.1667 8.00004" stroke="#4B465C" stroke-width="1.75" stroke-linecap="round" stroke-linejoin="round"/>
    <path d="M12.5 6.33337C13.4205 6.33337 14.1667 7.07957 14.1667 8.00004" stroke="white" stroke-opacity="0.2" stroke-width="1.75" stroke-linecap="round" stroke-linejoin="round"/>
    <path d="M12.5 3C15.2614 3 17.5 5.23858 17.5 8" stroke="#4B465C" stroke-width="1.75" stroke-linecap="round" stroke-linejoin="round"/>
    <path d="M12.5 3C15.2614 3 17.5 5.23858 17.5 8" stroke="white" stroke-opacity="0.2" stroke-width="1.75" stroke-linecap="round" stroke-linejoin="round"/>
</svg>
