<svg width="20" height="21" viewBox="0 0 20 21" fill="none" xmlns="http://www.w3.org/2000/svg">
    <path d="M3.33325 6.33337V5.50004C3.33325 4.57957 4.07944 3.83337 4.99992 3.83337H6.66659" stroke="#4B465C" stroke-width="1.75" stroke-linecap="round" stroke-linejoin="round"/>
    <path d="M3.33325 6.33337V5.50004C3.33325 4.57957 4.07944 3.83337 4.99992 3.83337H6.66659" stroke="white" stroke-opacity="0.2" stroke-width="1.75" stroke-linecap="round" stroke-linejoin="round"/>
    <path d="M3.33325 14.6666V15.5C3.33325 16.4204 4.07944 17.1666 4.99992 17.1666H6.66659" stroke="#4B465C" stroke-width="1.75" stroke-linecap="round" stroke-linejoin="round"/>
    <path d="M3.33325 14.6666V15.5C3.33325 16.4204 4.07944 17.1666 4.99992 17.1666H6.66659" stroke="white" stroke-opacity="0.2" stroke-width="1.75" stroke-linecap="round" stroke-linejoin="round"/>
    <path d="M13.3333 3.83337H14.9999C15.9204 3.83337 16.6666 4.57957 16.6666 5.50004V6.33337" stroke="#4B465C" stroke-width="1.75" stroke-linecap="round" stroke-linejoin="round"/>
    <path d="M13.3333 3.83337H14.9999C15.9204 3.83337 16.6666 4.57957 16.6666 5.50004V6.33337" stroke="white" stroke-opacity="0.2" stroke-width="1.75" stroke-linecap="round" stroke-linejoin="round"/>
    <path d="M13.3333 17.1666H14.9999C15.9204 17.1666 16.6666 16.4204 16.6666 15.5V14.6666" stroke="#4B465C" stroke-width="1.75" stroke-linecap="round" stroke-linejoin="round"/>
    <path d="M13.3333 17.1666H14.9999C15.9204 17.1666 16.6666 16.4204 16.6666 15.5V14.6666" stroke="white" stroke-opacity="0.2" stroke-width="1.75" stroke-linecap="round" stroke-linejoin="round"/>
    <rect x="4.16675" y="9.66663" width="0.833333" height="1.66667" stroke="#4B465C" stroke-width="1.75" stroke-linecap="round" stroke-linejoin="round"/>
    <rect x="4.16675" y="9.66663" width="0.833333" height="1.66667" stroke="white" stroke-opacity="0.2" stroke-width="1.75" stroke-linecap="round" stroke-linejoin="round"/>
    <path d="M8.33341 9.66663V11.3333" stroke="#4B465C" stroke-width="1.75" stroke-linecap="round" stroke-linejoin="round"/>
    <path d="M8.33341 9.66663V11.3333" stroke="white" stroke-opacity="0.2" stroke-width="1.75" stroke-linecap="round" stroke-linejoin="round"/>
    <rect x="11.6667" y="9.66663" width="0.833333" height="1.66667" stroke="#4B465C" stroke-width="1.75" stroke-linecap="round" stroke-linejoin="round"/>
    <rect x="11.6667" y="9.66663" width="0.833333" height="1.66667" stroke="white" stroke-opacity="0.2" stroke-width="1.75" stroke-linecap="round" stroke-linejoin="round"/>
    <path d="M15.8334 9.66663V11.3333" stroke="#4B465C" stroke-width="1.75" stroke-linecap="round" stroke-linejoin="round"/>
    <path d="M15.8334 9.66663V11.3333" stroke="white" stroke-opacity="0.2" stroke-width="1.75" stroke-linecap="round" stroke-linejoin="round"/>
</svg>