<svg width="20" height="21" viewBox="0 0 20 21" fill="none" xmlns="http://www.w3.org/2000/svg">
    <path d="M11.6667 3V6.33333C11.6667 6.79357 12.0398 7.16667 12.5001 7.16667H15.8334" stroke="#4B465C" stroke-width="1.75" stroke-linecap="round" stroke-linejoin="round"/>
    <path d="M11.6667 3V6.33333C11.6667 6.79357 12.0398 7.16667 12.5001 7.16667H15.8334" stroke="white" stroke-opacity="0.2" stroke-width="1.75" stroke-linecap="round" stroke-linejoin="round"/>
    <path fill-rule="evenodd" clip-rule="evenodd" d="M14.1667 18H5.83341C4.91294 18 4.16675 17.2538 4.16675 16.3333V4.66667C4.16675 3.74619 4.91294 3 5.83341 3H11.6667L15.8334 7.16667V16.3333C15.8334 17.2538 15.0872 18 14.1667 18Z" stroke="#4B465C" stroke-width="1.75" stroke-linecap="round" stroke-linejoin="round"/>
    <path fill-rule="evenodd" clip-rule="evenodd" d="M14.1667 18H5.83341C4.91294 18 4.16675 17.2538 4.16675 16.3333V4.66667C4.16675 3.74619 4.91294 3 5.83341 3H11.6667L15.8334 7.16667V16.3333C15.8334 17.2538 15.0872 18 14.1667 18Z" stroke="white" stroke-opacity="0.2" stroke-width="1.75" stroke-linecap="round" stroke-linejoin="round"/>
    <path d="M7.5 6.33329H8.33333" stroke="#4B465C" stroke-width="1.75" stroke-linecap="round" stroke-linejoin="round"/>
    <path d="M7.5 6.33329H8.33333" stroke="white" stroke-opacity="0.2" stroke-width="1.75" stroke-linecap="round" stroke-linejoin="round"/>
    <path d="M7.5 11.3333H12.5" stroke="#4B465C" stroke-width="1.75" stroke-linecap="round" stroke-linejoin="round"/>
    <path d="M7.5 11.3333H12.5" stroke="white" stroke-opacity="0.2" stroke-width="1.75" stroke-linecap="round" stroke-linejoin="round"/>
    <path d="M10.8333 14.6667H12.4999" stroke="#4B465C" stroke-width="1.75" stroke-linecap="round" stroke-linejoin="round"/>
    <path d="M10.8333 14.6667H12.4999" stroke="white" stroke-opacity="0.2" stroke-width="1.75" stroke-linecap="round" stroke-linejoin="round"/>
</svg>
