<svg width="22" height="22" viewBox="0 0 22 22" fill="none" xmlns="http://www.w3.org/2000/svg">
    <ellipse cx="8.25004" cy="6.41667" rx="3.66667" ry="3.66667" stroke="#4B465C" stroke-width="1.75" stroke-linecap="round" stroke-linejoin="round"/>
    <ellipse cx="8.25004" cy="6.41667" rx="3.66667" ry="3.66667" stroke="white" stroke-opacity="0.2" stroke-width="1.75" stroke-linecap="round" stroke-linejoin="round"/>
    <path d="M2.75 19.25V17.4167C2.75 15.3916 4.39162 13.75 6.41667 13.75H10.0833C12.1084 13.75 13.75 15.3916 13.75 17.4167V19.25" stroke="#4B465C" stroke-width="1.75" stroke-linecap="round" stroke-linejoin="round"/>
    <path d="M2.75 19.25V17.4167C2.75 15.3916 4.39162 13.75 6.41667 13.75H10.0833C12.1084 13.75 13.75 15.3916 13.75 17.4167V19.25" stroke="white" stroke-opacity="0.2" stroke-width="1.75" stroke-linecap="round" stroke-linejoin="round"/>
    <path d="M14.6666 2.86902C16.289 3.28442 17.4238 4.74634 17.4238 6.4211C17.4238 8.09586 16.289 9.55778 14.6666 9.97318" stroke="#4B465C" stroke-width="1.75" stroke-linecap="round" stroke-linejoin="round"/>
    <path d="M14.6666 2.86902C16.289 3.28442 17.4238 4.74634 17.4238 6.4211C17.4238 8.09586 16.289 9.55778 14.6666 9.97318" stroke="white" stroke-opacity="0.2" stroke-width="1.75" stroke-linecap="round" stroke-linejoin="round"/>
    <path d="M19.25 19.25V17.4166C19.2404 15.7525 18.1113 14.3035 16.5 13.8875" stroke="#4B465C" stroke-width="1.75" stroke-linecap="round" stroke-linejoin="round"/>
    <path d="M19.25 19.25V17.4166C19.2404 15.7525 18.1113 14.3035 16.5 13.8875" stroke="white" stroke-opacity="0.2" stroke-width="1.75" stroke-linecap="round" stroke-linejoin="round"/>
</svg>
