<svg width="18" height="18" viewBox="0 0 18 18" fill="none" xmlns="http://www.w3.org/2000/svg">
    <path d="M7.5 10.5C7.99373 11.004 8.66952 11.2879 9.375 11.2879C10.0805 11.2879 10.7563 11.004 11.25 10.5L14.25 7.50004C15.2855 6.46451 15.2855 4.78557 14.25 3.75004C13.2145 2.71451 11.5355 2.71451 10.5 3.75004L10.125 4.12504" stroke="#A8AAAE" stroke-width="1.75" stroke-linecap="round" stroke-linejoin="round"/>
    <path d="M10.4998 7.50004C10.0061 6.99613 9.33028 6.71216 8.62479 6.71216C7.91931 6.71216 7.24353 6.99613 6.74979 7.50004L3.74979 10.5C2.71426 11.5356 2.71426 13.2145 3.74979 14.25C4.78533 15.2856 6.46426 15.2856 7.49979 14.25L7.87479 13.875" stroke="#A8AAAE" stroke-width="1.75" stroke-linecap="round" stroke-linejoin="round"/>
</svg>
