<svg width="18" height="18" viewBox="0 0 18 18" fill="none" xmlns="http://www.w3.org/2000/svg">
    <path d="M12.525 6C12.2196 5.13344 11.418 4.53964 10.5 4.5H7.5C6.25736 4.5 5.25 5.50736 5.25 6.75C5.25 7.99264 6.25736 9 7.5 9H10.5C11.7426 9 12.75 10.0074 12.75 11.25C12.75 12.4926 11.7426 13.5 10.5 13.5H7.5C6.58205 13.4604 5.78041 12.8666 5.475 12" stroke="#A8AAAE" stroke-width="1.75" stroke-linecap="round" stroke-linejoin="round"/>
    <path d="M9.875 2.25C9.875 1.76675 9.48325 1.375 9 1.375C8.51675 1.375 8.125 1.76675 8.125 2.25H9.875ZM8.125 4.5C8.125 4.98325 8.51675 5.375 9 5.375C9.48325 5.375 9.875 4.98325 9.875 4.5H8.125ZM9.875 13.5C9.875 13.0168 9.48325 12.625 9 12.625C8.51675 12.625 8.125 13.0168 8.125 13.5H9.875ZM8.125 15.75C8.125 16.2332 8.51675 16.625 9 16.625C9.48325 16.625 9.875 16.2332 9.875 15.75H8.125ZM8.125 2.25V4.5H9.875V2.25H8.125ZM8.125 13.5V15.75H9.875V13.5H8.125Z" fill="#A8AAAE"/>
</svg>
