<svg width="138" height="172" viewBox="0 0 138 172" fill="none" xmlns="http://www.w3.org/2000/svg">
    <path d="M46.9637 98.1822L81.3075 37.0469C81.348 36.9776 81.4035 36.9183 81.47 36.8736C81.5364 36.8288 81.612 36.7997 81.6911 36.7885L119.861 31.9713C120.134 31.9368 120.199 32.0385 120.058 32.2762L79.9855 100.182C79.8749 100.372 79.8974 100.543 80.0529 100.694L137.953 157.069C137.974 157.089 137.989 157.114 137.996 157.142C138.003 157.17 138.001 157.199 137.992 157.227C137.983 157.254 137.966 157.278 137.943 157.296C137.92 157.314 137.893 157.325 137.864 157.328L95.8899 162.615C95.8159 162.625 95.7404 162.617 95.6693 162.593C95.5983 162.569 95.5337 162.529 95.4804 162.476L49.3639 116.33C49.3468 116.31 49.3238 116.297 49.2983 116.291C49.2729 116.286 49.2464 116.289 49.2229 116.3C49.1994 116.311 49.1802 116.33 49.1683 116.353C49.1563 116.376 49.1522 116.402 49.1565 116.428L55.6313 167.438C55.652 167.61 55.576 167.706 55.4032 167.727L21.5209 171.996C21.3515 172.017 21.2565 171.945 21.2357 171.779L0.00224105 4.4945C-0.0115828 4.38079 0.038549 4.31705 0.152596 4.30326L34.2008 0.00290755C34.3218 -0.0143214 34.3892 0.0390871 34.403 0.163136L46.8393 98.1564C46.8412 98.1702 46.8473 98.183 46.8568 98.1932C46.8663 98.2034 46.8787 98.2103 46.8924 98.2132C46.906 98.216 46.9202 98.2145 46.933 98.209C46.9458 98.2035 46.9565 98.1941 46.9637 98.1822Z" fill="#D4D7E4"/>
</svg>
