<svg width="80" height="85" viewBox="0 0 80 85" fill="none" xmlns="http://www.w3.org/2000/svg">
    <path d="M66.2493 0.0587205L48.0545 4.0792C47.9077 4.11164 47.8151 4.25657 47.8476 4.4029L61.2146 64.5003C61.2472 64.6466 61.3926 64.739 61.5394 64.7065L79.7341 60.686C79.881 60.6536 79.9736 60.5087 79.941 60.3623L66.574 0.264941C66.5415 0.118606 66.3961 0.0262789 66.2493 0.0587205Z" fill="#A9AEC8" fill-opacity="0.5"/>
    <path d="M54.9545 68.1788L11.2788 38.8156C11.1542 38.7318 10.9849 38.7646 10.9008 38.8888L0.152367 54.7719C0.0682758 54.8962 0.10117 55.0649 0.22584 55.1487L43.9015 84.5119C44.0262 84.5957 44.1954 84.563 44.2795 84.4387L55.028 68.5556C55.1121 68.4313 55.0792 68.2626 54.9545 68.1788Z" fill="#A9AEC8" fill-opacity="0.5"/>
</svg>
